<?xml version="1.0" encoding="utf-8"?>
<!-- Generator: Adobe Illustrator 24.1.3, SVG Export Plug-In . SVG Version: 6.00 Build 0)  -->
<svg version="1.1" id="Vrstva_1" xmlns="http://www.w3.org/2000/svg" xmlns:xlink="http://www.w3.org/1999/xlink" x="0px" y="0px"
	 viewBox="0 0 124 22" style="enable-background:new 0 0 124 22;" xml:space="preserve">
<style type="text/css">
	.st0{fill:#0F2550;}
	.st1{clip-path:url(#SVGID_2_);fill:#D91A1A;}
	.st2{clip-path:url(#SVGID_2_);fill:#F2561D;}
	.st3{clip-path:url(#SVGID_2_);fill:#F2BE22;}
</style>
<g>
	<path class="st0" d="M5.63,19.55H2.46V2.45h7.95c3.67,0,6.65,2.98,6.65,6.65c0,3.67-2.98,6.65-6.65,6.65H5.63V19.55z M5.63,12.58
		h4.79c1.92,0,3.48-1.56,3.48-3.48c0-1.92-1.56-3.48-3.48-3.48H5.63V12.58z"/>
	<path class="st0" d="M18.44,15.74L18.44,15.74l0-3.16h0V5.61h0V2.45h7.95c3.67,0,6.65,2.98,6.65,6.65c0,2.17-1.04,4.09-2.64,5.3
		c0.33,1.15,1.39,1.99,2.64,1.99v3.16c-2.56,0-4.74-1.62-5.56-3.9c-0.2,0.03-0.4,0.06-0.61,0.07c-0.16,0.01-0.32,0.02-0.48,0.02
		h-4.79v3.81h-3.16V15.74z M21.61,12.58h4.79c0.69,0,1.34-0.2,1.88-0.55c0.97-0.62,1.61-1.7,1.61-2.93c0-1.92-1.56-3.48-3.48-3.48
		h-4.79V12.58z"/>
	<path class="st0" d="M34.42,19.55V2.45h3.16v17.1H34.42z"/>
	<path class="st0" d="M50.38,14.48c0-1.05-0.85-1.9-1.9-1.9l-4.47,0c-2.8,0-5.07-2.27-5.07-5.07s2.27-5.07,5.07-5.07h4.47
		c2.8,0,5.07,2.27,5.07,5.07h-3.16c0-1.05-0.85-1.9-1.9-1.9h-4.47c-1.05,0-1.9,0.85-1.9,1.9c0,1.05,0.85,1.9,1.9,1.9l4.47,0
		c2.8,0,5.07,2.27,5.07,5.07c0,2.8-2.27,5.07-5.07,5.07h-4.47c-2.8,0-5.07-2.27-5.07-5.07h3.16c0,1.05,0.85,1.9,1.9,1.9h4.47
		C49.53,16.39,50.38,15.54,50.38,14.48z"/>
	<g>
		<defs>
			<path id="SVGID_1_" d="M57.06,17.05c-3.34-3.34-3.34-8.75,0-12.09s8.75-3.34,12.09,0l-2.24,2.24c-2.1-2.1-5.51-2.1-7.62,0
				c-2.1,2.1-2.1,5.51,0,7.62c2.1,2.1,5.51,2.1,7.62,0l2.24,2.24C65.81,20.38,60.4,20.39,57.06,17.05z"/>
		</defs>
		<clipPath id="SVGID_2_">
			<use xlink:href="#SVGID_1_"  style="overflow:visible;"/>
		</clipPath>
		<polygon class="st1" points="58.21,0.42 61.32,5.92 67.21,7.42 70.21,4.42 67.21,0.42 		"/>
		<polygon class="st2" points="60.36,6.37 57.21,1.42 52.21,8.42 52.21,14.42 60.21,11.42 		"/>
		<polygon class="st3" points="60.21,12.42 53.21,15.42 62.29,27.85 72.29,24.85 69.29,10.85 		"/>
	</g>
	<path class="st0" d="M70.51,19.55V2.45h3.16v17.1H70.51z"/>
	<path class="st0" d="M75.03,19.55V2.45h3.16v13.94h11.43v3.16H75.03z"/>
	<path class="st0" d="M90.99,19.55V2.45h3.16v13.94h11.43v3.16H90.99z"/>
	<path class="st0" d="M110.11,19.55h-3.17v-9.8c0-4.03,3.27-7.3,7.3-7.3c4.03,0,7.3,3.27,7.3,7.3v9.8h-3.17v-3.16h-8.26V19.55z
		 M110.11,9.75v3.47h8.26V9.75c0-2.28-1.85-4.13-4.13-4.13C111.96,5.62,110.11,7.47,110.11,9.75z"/>
</g>
</svg>
